<?xml version="1.0" encoding="utf-8"?>
<!-- Generator: Adobe Illustrator 16.2.1, SVG Export Plug-In . SVG Version: 6.00 Build 0)  -->
<!DOCTYPE svg PUBLIC "-//W3C//DTD SVG 1.1//EN" "http://www.w3.org/Graphics/SVG/1.1/DTD/svg11.dtd" [
	<!ENTITY ns_extend "http://ns.adobe.com/Extensibility/1.0/">
	<!ENTITY ns_ai "http://ns.adobe.com/AdobeIllustrator/10.0/">
	<!ENTITY ns_graphs "http://ns.adobe.com/Graphs/1.0/">
	<!ENTITY ns_vars "http://ns.adobe.com/Variables/1.0/">
	<!ENTITY ns_imrep "http://ns.adobe.com/ImageReplacement/1.0/">
	<!ENTITY ns_sfw "http://ns.adobe.com/SaveForWeb/1.0/">
	<!ENTITY ns_custom "http://ns.adobe.com/GenericCustomNamespace/1.0/">
	<!ENTITY ns_adobe_xpath "http://ns.adobe.com/XPath/1.0/">
]>
<svg version="1.1" id="Layer_1" xmlns:x="&ns_extend;" xmlns:i="&ns_ai;" xmlns:graph="&ns_graphs;"
	 xmlns="http://www.w3.org/2000/svg" xmlns:xlink="http://www.w3.org/1999/xlink" x="0px" y="0px" width="174.333px" height="174px"
	 viewBox="0 0 174.333 174" enable-background="new 0 0 174.333 174" xml:space="preserve">
<metadata>
	<sfw  xmlns="&ns_sfw;">
		<slices></slices>
		<sliceSourceBounds  bottomLeftOrigin="true" y="-171" x="4" width="167" height="167"></sliceSourceBounds>
	</sfw>
</metadata>
<g>
	<rect x="4" y="32" fill="#FFFFFF" width="167" height="10"/>
	<polygon fill="#FFFFFF" points="88.152,24 163.506,24 87,4.256 87,4 88.135,4 87,4 87,4.256 12.772,24 88.125,24 	"/>
	<rect x="14" y="143" fill="#FFFFFF" width="149" height="10"/>
	<rect x="4" y="161" fill="#FFFFFF" width="167" height="10"/>
	<polygon fill="#FFFFFF" points="106.431,105 146.939,105 126.705,74.034 	"/>
	<polygon fill="#FFFFFF" points="50.01,74.034 29.733,105 70.245,105 	"/>
	<path fill="#FFFFFF" d="M93,67v69h70V50H14v86h71V67H47v-5.124l41.59-4.214L131,61.876V67H93z M49.988,129.183
		c-10.613,0-19.929-4.183-25.234-14.183h50.468C69.914,125,60.601,129.183,49.988,129.183z M48.061,70h3.904l24.74,37.423
		L75,110.896v-0.092L74.557,110H25.419l-1.952-3.024L48.061,70z M126.686,129.181c-10.616,0-19.929-4.181-25.236-14.181h50.467
		C146.608,125,137.296,129.181,126.686,129.181z M152.932,107.307L151.155,110h0.097l-0.193,0.497L151,110.93v-0.089l0.059-0.344
		l0.097-0.497h-49.042l-1.952-3.024L124.755,70h3.904L152.932,107.307z"/>
</g>
</svg>
